<svg width="54.000000" height="70.000000" viewBox="0 0 54 70" fill="none" xmlns="http://www.w3.org/2000/svg" xmlns:xlink="http://www.w3.org/1999/xlink">
	<desc>
			Created with Pixso.
	</desc>
	<defs>
		<linearGradient id="paint_linear_121_1258_0" x1="62.571442" y1="34.687492" x2="0.499680" y2="34.687492" gradientUnits="userSpaceOnUse">
			<stop stop-color="#03142A"/>
			<stop offset="0.778461" stop-color="#FC6736"/>
		</linearGradient>
		<linearGradient id="paint_linear_121_1259_0" x1="61.428539" y1="34.829075" x2="-2.952412" y2="34.829075" gradientUnits="userSpaceOnUse">
			<stop stop-color="#03142A"/>
			<stop offset="0.798869" stop-color="#FC6736"/>
		</linearGradient>
	</defs>
	<path id="Subtract" d="M51.58 46.1C53.13 42.56 54 38.64 54 34.52C54 30.19 53.04 26.09 51.34 22.4C49.63 25.91 48.67 29.85 48.67 34.02C48.67 38.37 49.72 42.48 51.58 46.1ZM50.21 48.82C47.64 44.49 46.16 39.42 46.16 34.02C46.16 28.82 47.52 23.94 49.92 19.72C48.26 16.95 46.16 14.49 43.71 12.42C37.42 17.72 33.42 25.65 33.42 34.52C33.42 43.39 37.42 51.32 43.71 56.61C46.31 54.43 48.52 51.79 50.21 48.82Z" fill="url(#paint_linear_121_1258_0)" fill-opacity="1.000000" fill-rule="evenodd"/>
	<path id="Vector 1 (Stroke)" d="M46.8 0.21C47.18 -0.22 47.84 -0.27 48.28 0.11C48.98 0.72 50.25 2.4 50.25 4.68C50.25 5.96 49.67 7 49.03 7.76C48.4 8.5 47.65 9.02 47.11 9.31L2.32 34.6L47.13 59.84C47.17 59.86 47.21 59.89 47.25 59.91C47.76 60.3 48.48 60.99 49.09 61.87C49.69 62.73 50.25 63.88 50.25 65.16C50.25 67.53 48.92 68.84 47.97 69.21C47.43 69.42 46.83 69.15 46.61 68.61C46.4 68.08 46.67 67.47 47.21 67.26C47.33 67.21 48.15 66.69 48.15 65.16C48.15 64.48 47.84 63.75 47.37 63.06C46.92 62.42 46.39 61.9 46.03 61.63L-0.33 35.52C-0.66 35.33 -0.86 34.98 -0.86 34.6C-0.86 34.22 -0.66 33.87 -0.33 33.69L46.1 7.47C46.11 7.46 46.12 7.46 46.13 7.45C46.46 7.28 46.99 6.91 47.43 6.4C47.87 5.88 48.15 5.3 48.15 4.68C48.15 3.15 47.27 2.01 46.9 1.69C46.47 1.31 46.42 0.65 46.8 0.21Z" fill="url(#paint_linear_121_1259_0)" fill-opacity="1.000000" fill-rule="evenodd"/>
</svg>
