<svg width="60.000000" height="60.000000" viewBox="0 0 60 60" fill="none" xmlns="http://www.w3.org/2000/svg" xmlns:xlink="http://www.w3.org/1999/xlink">
	<desc>
			Created with Pixso.
	</desc>
	<defs/>
	<circle id="Ellipse 11" cx="30.000000" cy="29.665527" r="29.500000" stroke="#FFFFFF" stroke-opacity="1.000000" stroke-width="1.000000"/>
	<path id="Vector" d="M16.52 20.22L28.56 32.1C28.92 32.46 29.39 32.66 29.9 32.69C30.4 32.72 30.89 32.56 31.29 32.24L31.44 32.1L43.48 20.22C43.52 20.37 43.54 20.52 43.56 20.68L43.57 20.91L43.57 36.98C43.57 37.66 43.31 38.31 42.84 38.8C42.38 39.3 41.74 39.6 41.06 39.65L40.85 39.66L19.14 39.66C18.45 39.66 17.79 39.41 17.29 38.95C16.79 38.49 16.48 37.86 16.43 37.18L16.42 36.98L16.42 20.91C16.42 20.75 16.44 20.59 16.46 20.44L16.52 20.22ZM40.85 18.23C41.02 18.23 41.18 18.25 41.33 18.27L41.56 18.33L30 29.74L18.43 18.32C18.58 18.28 18.74 18.26 18.9 18.24L19.14 18.23L40.85 18.23Z" fill="#EFECEC" fill-opacity="1.000000" fill-rule="nonzero"/>
</svg>
