<svg width="69.000000" height="70.000000" viewBox="0 0 69 70" fill="none" xmlns="http://www.w3.org/2000/svg" xmlns:xlink="http://www.w3.org/1999/xlink">
	<desc>
			Created with Pixso.
	</desc>
	<defs>
		<linearGradient id="paint_linear_121_1268_0" x1="81.299110" y1="34.746487" x2="-0.076843" y2="34.746487" gradientUnits="userSpaceOnUse">
			<stop stop-color="#03142A"/>
			<stop offset="1.000000" stop-color="#FC6736"/>
		</linearGradient>
		<linearGradient id="paint_linear_121_1269_0" x1="81.488228" y1="35.202248" x2="0.032188" y2="35.202248" gradientUnits="userSpaceOnUse">
			<stop stop-color="#03142A"/>
			<stop offset="1.000000" stop-color="#FC6736"/>
		</linearGradient>
	</defs>
	<path id="Rectangle 17 (Stroke)" d="M-0.72 0.92C-0.72 0.33 -0.24 -0.15 0.35 -0.15L17.13 -0.15C17.72 -0.15 18.2 0.33 18.2 0.92C18.2 1.51 17.72 1.99 17.13 1.99L1.42 1.99L1.42 17.7C1.42 18.29 0.94 18.77 0.35 18.77C-0.24 18.77 -0.72 18.29 -0.72 17.7L-0.72 0.92ZM49.63 0.92C49.63 0.33 50.1 -0.15 50.7 -0.15L67.48 -0.15C68.07 -0.15 68.55 0.33 68.55 0.92L68.55 17.7C68.55 18.29 68.07 18.77 67.48 18.77C66.89 18.77 66.41 18.29 66.41 17.7L66.41 1.99L50.7 1.99C50.1 1.99 49.63 1.51 49.63 0.92ZM0.35 50.2C0.94 50.2 1.42 50.68 1.42 51.27L1.42 66.98L17.13 66.98C17.72 66.98 18.2 67.46 18.2 68.05C18.2 68.64 17.72 69.12 17.13 69.12L0.35 69.12C-0.24 69.12 -0.72 68.64 -0.72 68.05L-0.72 51.27C-0.72 50.68 -0.24 50.2 0.35 50.2ZM67.48 50.2C68.07 50.2 68.55 50.68 68.55 51.27L68.55 68.05C68.55 68.64 68.07 69.12 67.48 69.12L50.7 69.12C50.1 69.12 49.63 68.64 49.63 68.05C49.63 67.46 50.1 66.98 50.7 66.98L66.41 66.98L66.41 51.27C66.41 50.68 66.89 50.2 67.48 50.2Z" fill="url(#paint_linear_121_1268_0)" fill-opacity="1.000000" fill-rule="evenodd"/>
	<path id="Exclude" d="M-0.61 35.04C6.71 23.59 19.5 16.01 34.06 16.01C48.61 16.01 61.4 23.59 68.72 35.04C61.4 46.51 48.61 54.1 34.06 54.1C19.5 54.1 6.71 46.51 -0.61 35.04ZM33.99 48.76C41.53 48.76 47.64 42.62 47.64 35.06C47.64 27.49 41.53 21.35 33.99 21.35C26.45 21.35 20.34 27.49 20.34 35.06C20.34 42.62 26.45 48.76 33.99 48.76ZM33.99 50.68C42.58 50.68 49.55 43.68 49.55 35.06C49.55 26.43 42.58 19.43 33.99 19.43C25.39 19.43 18.42 26.43 18.42 35.06C18.42 43.68 25.39 50.68 33.99 50.68ZM33.99 27.38C29.77 27.38 26.34 30.82 26.34 35.06C26.34 35.59 25.91 36.02 25.39 36.02C24.86 36.02 24.43 35.59 24.43 35.06C24.43 29.76 28.71 25.46 33.99 25.46C34.52 25.46 34.94 25.89 34.94 26.42C34.94 26.95 34.52 27.38 33.99 27.38Z" fill="url(#paint_linear_121_1269_0)" fill-opacity="1.000000" fill-rule="evenodd"/>
</svg>
