<svg width="41.000000" height="55.000000" viewBox="0 0 41 55" fill="none" xmlns="http://www.w3.org/2000/svg" xmlns:xlink="http://www.w3.org/1999/xlink">
	<desc>
			Created with Pixso.
	</desc>
	<defs>
		<linearGradient id="paint_linear_121_1320_0" x1="48.612129" y1="27.359428" x2="-0.189163" y2="27.359428" gradientUnits="userSpaceOnUse">
			<stop stop-color="#03142A"/>
			<stop offset="1.000000" stop-color="#FC6736"/>
		</linearGradient>
	</defs>
	<path id="Exclude" d="M27.1068 -0.523926C11.8206 -0.523926 -0.571411 11.8679 -0.571411 27.1543C-0.571411 42.4404 11.8206 54.8325 27.1068 54.8325C32.1569 54.8325 36.8911 53.48 40.967 51.1174C28.0109 50.7571 17.6187 40.1411 17.6187 27.0979C17.6187 14.1172 27.9116 3.54053 40.781 3.08423C36.7473 0.787842 32.0802 -0.523926 27.1068 -0.523926ZM20.7408 7.40503Q19.3436 7.86841 18.0391 8.51782Q16.4727 9.29785 15.0399 10.3462Q13.7424 11.2957 12.6179 12.4185Q11.4926 13.542 10.5406 14.8394Q9.48999 16.2708 8.70776 17.8364Q8.05676 19.1396 7.59155 20.5356Q7.16736 21.8086 6.91309 23.1147Q6.53259 25.0693 6.53259 27.0979C6.53259 28.0579 5.77832 28.8123 4.81824 28.8123C3.85828 28.8123 3.104 28.0579 3.104 27.0979Q3.104 24.7915 3.5271 22.5652Q3.82678 20.9883 4.33875 19.4519Q4.88904 17.8005 5.66199 16.261Q6.56665 14.4592 7.77649 12.8108Q8.88489 11.3005 10.1951 9.99219Q11.5044 8.68481 13.0153 7.57935Q14.6652 6.37207 16.4678 5.46997Q18.0089 4.69873 19.6616 4.15063C20.5729 3.84839 21.5262 4.3269 21.8284 5.23828C22.1306 6.14941 21.6521 7.10278 20.7408 7.40503Z" clip-rule="evenodd" fill="url(#paint_linear_121_1320_0)" fill-opacity="1.000000" fill-rule="evenodd"/>
</svg>
