<svg width="161.000000" height="33.000000" viewBox="0 0 161 33" fill="none" xmlns="http://www.w3.org/2000/svg" xmlns:xlink="http://www.w3.org/1999/xlink">
	<desc>
			Created with Pixso.
	</desc>
	<defs>
		<linearGradient id="paint_linear_120_481_0" x1="79.999985" y1="15.709052" x2="66.022270" y2="-0.489039" gradientUnits="userSpaceOnUse">
			<stop stop-color="#FFB0B0"/>
			<stop offset="1.000000" stop-color="#0C2D57" stop-opacity="0.000000"/>
		</linearGradient>
	</defs>
	<path id="Rectangle 5" d="M117.03 -0.03L144 -0.03Q150.83 -0.03 155.66 4.8Q160.5 9.63 160.5 16.47Q160.5 23.3 155.66 28.13Q150.83 32.97 144 32.97L16 32.97Q9.16 32.97 4.33 28.13Q-0.5 23.3 -0.5 16.47Q-0.5 9.63 4.33 4.8Q9.16 -0.03 16 -0.03L68.14 -0.03L68.14 0.97L16 0.97Q9.57 0.97 5.03 5.51Q0.5 10.05 0.5 16.47Q0.5 22.89 5.03 27.43Q9.57 31.97 16 31.97L144 31.97Q150.42 31.97 154.96 27.43Q159.5 22.89 159.5 16.47Q159.5 10.05 154.96 5.51Q150.42 0.97 144 0.97L117.03 0.97L117.03 -0.03ZM117.05 0.95L117.03 0.97C116.75 0.97 116.53 0.75 116.53 0.47C116.53 0.19 116.75 -0.03 117.03 -0.03L117.05 -0.01L117.05 0.95ZM68.12 -0.01L68.14 -0.03C68.42 -0.03 68.64 0.19 68.64 0.47C68.64 0.75 68.42 0.97 68.14 0.97L68.12 0.95L68.12 -0.01Z" fill="url(#paint_linear_120_481_0)" fill-opacity="1.000000" fill-rule="evenodd"/>
</svg>
