<svg width="79.000000" height="53.000000" viewBox="0 0 79 53" fill="none" xmlns="http://www.w3.org/2000/svg" xmlns:xlink="http://www.w3.org/1999/xlink">
	<desc>
			Created with Pixso.
	</desc>
	<defs>
		<linearGradient id="paint_linear_121_1326_0" x1="72.451538" y1="26.313248" x2="14.019569" y2="26.313248" gradientUnits="userSpaceOnUse">
			<stop stop-color="#03142A"/>
			<stop offset="1.000000" stop-color="#FC6736"/>
		</linearGradient>
		<linearGradient id="paint_linear_121_1331_0" x1="92.561218" y1="26.334801" x2="-0.083832" y2="26.334801" gradientUnits="userSpaceOnUse">
			<stop stop-color="#03142A"/>
			<stop offset="1.000000" stop-color="#FC6736"/>
		</linearGradient>
	</defs>
	<path id="Subtract" d="M62.2892 18.4954C59.0644 8.44482 49.6417 1.17017 38.52 1.17017C24.736 1.17017 13.5619 12.3442 13.5619 26.1282C13.5619 32.6973 16.0997 38.6736 20.2484 43.1301C28.0887 40.3508 35.3596 36.9248 36.4534 36.1436C36.8995 35.8247 37.9713 35.1519 39.4846 34.2019C44.4816 31.0647 54.293 24.905 62.2892 18.4954ZM31.5607 11.3621Q30.6052 11.772 29.7178 12.2969Q28.619 12.947 27.6247 13.7737Q26.7033 14.5398 25.913 15.4229Q25.1712 16.2517 24.5448 17.1838Q23.8278 18.251 23.2957 19.4033Q22.8549 20.3582 22.5411 21.3716Q22.2684 22.2522 22.0997 23.1521Q21.8254 24.6145 21.8254 26.1284C21.8254 27.1951 20.9873 28.0332 19.9206 28.0332C18.8539 28.0332 18.0159 27.1951 18.0159 26.1284Q18.0159 24.3267 18.3309 22.5815Q18.5443 21.4001 18.902 20.2449Q19.2985 18.9644 19.8583 17.76Q20.51 16.3582 21.3829 15.0591Q22.162 13.8997 23.0854 12.8696Q24.0574 11.7854 25.1892 10.8445Q26.3962 9.84082 27.7284 9.04736Q28.8495 8.37988 30.0592 7.86108C31.0396 7.44067 32.1401 7.88062 32.5605 8.86084C32.981 9.84106 32.541 10.9417 31.5607 11.3621ZM28.5668 49.0227C31.616 50.3501 34.982 51.0864 38.52 51.0864C51.2833 51.0864 61.8089 41.5059 63.2977 29.1438C58.7439 32.7605 53.6764 36.2349 48.2812 39.3457C41.8981 43.0266 35.1496 46.3491 28.5668 49.0227Z" clip-rule="evenodd" fill="url(#paint_linear_121_1326_0)" fill-opacity="1.000000" fill-rule="evenodd"/>
	<path id="Vector 3" d="M11.09 26.68C11.25 28.59 11.67 32.53 12.05 33.04C11.25 34.79 5.05 39.87 8.47 44.01C12.28 48.61 33.27 39.57 37.88 36.77C40.5 35.18 72.14 16.43 69.12 8.48C68 5.54 62.52 5.22 57.99 6.65C57.27 5.38 54.3 3.44 52.9 2.67C54.65 1.48 73.81 -3.37 77.46 3.95C81.12 11.26 67.05 27.95 47.89 39C28.74 50.05 5.53 57.12 0.04 48.3C-3.76 42.18 6.01 31.69 11.09 26.68Z" fill="url(#paint_linear_121_1331_0)" fill-opacity="1.000000" fill-rule="evenodd"/>
</svg>
