<svg width="51.000000" height="47.000000" viewBox="0 0 51 47" fill="none" xmlns="http://www.w3.org/2000/svg" xmlns:xlink="http://www.w3.org/1999/xlink">
	<desc>
			Created with Pixso.
	</desc>
	<defs/>
	<path id="Rectangle 23" d="M20.31 -0.43L41.99 -0.43C43.65 -0.43 44.99 0.91 44.99 2.57L44.99 12.69C44.99 14.34 43.65 15.69 41.99 15.69L32.02 15.69C31.56 15.69 31.12 15.84 30.76 16.13L26.11 19.89C25.54 20.35 24.69 20.06 24.51 19.36L23.95 17.19C23.72 16.3 22.92 15.69 22.01 15.69L20.31 15.69C18.65 15.69 17.31 14.34 17.31 12.69L17.31 2.57C17.31 0.91 18.65 -0.43 20.31 -0.43Z" fill="#EFECEC" fill-opacity="1.000000" fill-rule="nonzero"/>
	<path id="Vector 5" d="M21.71 5.11L33.92 5.11M21.71 10.66L42.06 10.66" stroke="#0A274C" stroke-opacity="1.000000" stroke-width="1.500000"/>
	<path id="Rectangle 26" d="M47.2 25.01L25.52 25.01C23.86 25.01 22.52 26.36 22.52 28.01L22.52 38.13C22.52 39.79 23.86 41.13 25.52 41.13L35.49 41.13C35.95 41.13 36.39 41.29 36.75 41.58L41.41 45.34C41.97 45.79 42.82 45.51 43 44.81L43.56 42.63C43.79 41.75 44.59 41.13 45.5 41.13L47.2 41.13C48.86 41.13 50.2 39.79 50.2 38.13L50.2 28.01C50.2 26.36 48.86 25.01 47.2 25.01Z" fill="#EFECEC" fill-opacity="1.000000" fill-rule="nonzero"/>
	<ellipse id="Ellipse 16" cx="10.687622" cy="23.484589" rx="7.802017" ry="7.792814" fill="#EFECEC" fill-opacity="1.000000"/>
	<path id="Rectangle 25" d="M10.05 29.78L11 29.78C16.55 29.78 21.05 34.28 21.05 39.83C21.05 43 18.48 45.58 15.3 45.58L5.74 45.58C2.57 45.58 0 43 0 39.83C0 34.28 4.5 29.78 10.05 29.78Z" fill="#EFECEC" fill-opacity="1.000000" fill-rule="nonzero"/>
	<path id="Vector 6" d="M25.78 30.07L37.99 30.07M25.78 35.62L46.13 35.62" stroke="#0A274C" stroke-opacity="1.000000" stroke-width="1.500000"/>
</svg>
