<svg width="505.000000" height="112.000000" viewBox="0 0 505 112" fill="none" xmlns="http://www.w3.org/2000/svg" xmlns:xlink="http://www.w3.org/1999/xlink">
	<desc>
			Created with Pixso.
	</desc>
	<defs>
		<radialGradient id="paint_radial_121_642_0" cx="0.000000" cy="0.000000" r="1.000000" gradientUnits="userSpaceOnUse" gradientTransform="translate(252 61.3154) rotate(90) scale(73.616 380.08)">
			<stop stop-color="#FC6736"/>
			<stop offset="1.000000" stop-color="#071E3B" stop-opacity="0.000000"/>
		</radialGradient>
	</defs>
	<mask id="mask121_617" mask-type="alpha" maskUnits="userSpaceOnUse" x="-0.999878" y="-0.529053" width="505.999878" height="112.444458">
		<path id="Vector" d="M-1 27.58C14.52 27.58 27.11 14.99 27.11 -0.53C27.11 14.99 39.69 27.58 55.22 27.58C39.69 27.58 27.11 40.16 27.11 55.69C27.11 40.16 14.52 27.58 -1 27.58Z" stroke="#FFFFFF" stroke-opacity="1.000000" stroke-width="1.000000"/>
		<path id="Vector" d="M55.22 27.58C70.74 27.58 83.33 14.99 83.33 -0.53C83.33 14.99 95.91 27.58 111.44 27.58C95.91 27.58 83.33 40.16 83.33 55.69C83.33 40.16 70.74 27.58 55.22 27.58Z" stroke="#FFFFFF" stroke-opacity="1.000000" stroke-width="1.000000"/>
		<path id="Vector" d="M111.44 27.58C126.97 27.58 139.55 14.99 139.55 -0.53C139.55 14.99 152.14 27.58 167.66 27.58C152.14 27.58 139.55 40.16 139.55 55.69C139.55 40.16 126.97 27.58 111.44 27.58Z" stroke="#FFFFFF" stroke-opacity="1.000000" stroke-width="1.000000"/>
		<path id="Vector" d="M-1 83.8C14.52 83.8 27.11 71.21 27.11 55.69C27.11 71.21 39.69 83.8 55.22 83.8C39.69 83.8 27.11 96.38 27.11 111.91C27.11 96.38 14.52 83.8 -1 83.8Z" stroke="#FFFFFF" stroke-opacity="1.000000" stroke-width="1.000000"/>
		<path id="Vector" d="M55.22 83.8C70.74 83.8 83.33 71.21 83.33 55.69C83.33 71.21 95.91 83.8 111.44 83.8C95.91 83.8 83.33 96.38 83.33 111.91C83.33 96.38 70.74 83.8 55.22 83.8Z" stroke="#FFFFFF" stroke-opacity="1.000000" stroke-width="1.000000"/>
		<path id="Vector" d="M111.44 83.8C126.97 83.8 139.55 71.21 139.55 55.69C139.55 71.21 152.14 83.8 167.66 83.8C152.14 83.8 139.55 96.38 139.55 111.91C139.55 96.38 126.97 83.8 111.44 83.8Z" stroke="#FFFFFF" stroke-opacity="1.000000" stroke-width="1.000000"/>
		<path id="Vector" d="M167.66 27.58C183.19 27.58 195.77 14.99 195.77 -0.53C195.77 14.99 208.36 27.58 223.88 27.58C208.36 27.58 195.77 40.16 195.77 55.69C195.77 40.16 183.19 27.58 167.66 27.58Z" stroke="#FFFFFF" stroke-opacity="1.000000" stroke-width="1.000000"/>
		<path id="Vector" d="M223.88 27.58C239.41 27.58 252 14.99 252 -0.53C252 14.99 264.58 27.58 280.11 27.58C264.58 27.58 252 40.16 252 55.69C252 40.16 239.41 27.58 223.88 27.58Z" stroke="#FFFFFF" stroke-opacity="1.000000" stroke-width="1.000000"/>
		<path id="Vector" d="M280.11 27.58C295.63 27.58 308.22 14.99 308.22 -0.53C308.22 14.99 320.8 27.58 336.33 27.58C320.8 27.58 308.22 40.16 308.22 55.69C308.22 40.16 295.63 27.58 280.11 27.58Z" stroke="#FFFFFF" stroke-opacity="1.000000" stroke-width="1.000000"/>
		<path id="Vector" d="M167.66 83.8C183.19 83.8 195.77 71.21 195.77 55.69C195.77 71.21 208.36 83.8 223.88 83.8C208.36 83.8 195.77 96.38 195.77 111.91C195.77 96.38 183.19 83.8 167.66 83.8Z" stroke="#FFFFFF" stroke-opacity="1.000000" stroke-width="1.000000"/>
		<path id="Vector" d="M223.88 83.8C239.41 83.8 252 71.21 252 55.69C252 71.21 264.58 83.8 280.11 83.8C264.58 83.8 252 96.38 252 111.91C252 96.38 239.41 83.8 223.88 83.8Z" stroke="#FFFFFF" stroke-opacity="1.000000" stroke-width="1.000000"/>
		<path id="Vector" d="M280.11 83.8C295.63 83.8 308.22 71.21 308.22 55.69C308.22 71.21 320.8 83.8 336.33 83.8C320.8 83.8 308.22 96.38 308.22 111.91C308.22 96.38 295.63 83.8 280.11 83.8Z" stroke="#FFFFFF" stroke-opacity="1.000000" stroke-width="1.000000"/>
		<path id="Vector" d="M336.33 27.58C351.85 27.58 364.44 14.99 364.44 -0.53C364.44 14.99 377.03 27.58 392.55 27.58C377.03 27.58 364.44 40.16 364.44 55.69C364.44 40.16 351.85 27.58 336.33 27.58Z" stroke="#FFFFFF" stroke-opacity="1.000000" stroke-width="1.000000"/>
		<path id="Vector" d="M392.55 27.58C408.08 27.58 420.66 14.99 420.66 -0.53C420.66 14.99 433.25 27.58 448.77 27.58C433.25 27.58 420.66 40.16 420.66 55.69C420.66 40.16 408.08 27.58 392.55 27.58Z" stroke="#FFFFFF" stroke-opacity="1.000000" stroke-width="1.000000"/>
		<path id="Vector" d="M448.77 27.58C464.3 27.58 476.88 14.99 476.88 -0.53C476.88 14.99 489.47 27.58 505 27.58C489.47 27.58 476.88 40.16 476.88 55.69C476.88 40.16 464.3 27.58 448.77 27.58Z" stroke="#FFFFFF" stroke-opacity="1.000000" stroke-width="1.000000"/>
		<path id="Vector" d="M336.33 83.8C351.85 83.8 364.44 71.21 364.44 55.69C364.44 71.21 377.03 83.8 392.55 83.8C377.03 83.8 364.44 96.38 364.44 111.91C364.44 96.38 351.85 83.8 336.33 83.8Z" stroke="#FFFFFF" stroke-opacity="1.000000" stroke-width="1.000000"/>
		<path id="Vector" d="M392.55 83.8C408.08 83.8 420.66 71.21 420.66 55.69C420.66 71.21 433.25 83.8 448.77 83.8C433.25 83.8 420.66 96.38 420.66 111.91C420.66 96.38 408.08 83.8 392.55 83.8Z" stroke="#FFFFFF" stroke-opacity="1.000000" stroke-width="1.000000"/>
		<path id="Vector" d="M448.77 83.8C464.3 83.8 476.88 71.21 476.88 55.69C476.88 71.21 489.47 83.8 505 83.8C489.47 83.8 476.88 96.38 476.88 111.91C476.88 96.38 464.3 83.8 448.77 83.8Z" stroke="#FFFFFF" stroke-opacity="1.000000" stroke-width="1.000000"/>
	</mask>
	<g mask="url(#mask121_617)">
		<rect id="Rectangle 30" x="-0.999878" y="-0.529053" width="505.999908" height="112.093033" fill="url(#paint_radial_121_642_0)" fill-opacity="1.000000"/>
	</g>
	<path id="Ellipse 21 (Stroke)" d="M180.38 42.57C180.04 42.24 179.69 41.93 179.33 41.63C176.17 39 172.1 37.42 167.66 37.42C157.57 37.42 149.39 45.6 149.39 55.69C149.39 60.13 150.97 64.19 153.6 67.36C153.9 67.72 154.22 68.07 154.54 68.41C154.67 68.54 154.81 68.68 154.94 68.81C155.14 69 155.35 69.19 155.56 69.38C158.78 72.23 163.02 73.96 167.66 73.96C177.75 73.96 185.93 65.78 185.93 55.69C185.93 51.05 184.2 46.81 181.35 43.59C181.17 43.38 180.98 43.17 180.78 42.97C180.65 42.83 180.52 42.7 180.38 42.57ZM177.34 43.63C174.69 41.5 171.32 40.23 167.66 40.23C159.12 40.23 152.2 47.15 152.2 55.69C152.2 59.35 153.47 62.71 155.6 65.36L177.34 43.63ZM157.55 67.39L179.36 45.58C181.71 48.29 183.12 51.82 183.12 55.69C183.12 64.23 176.2 71.15 167.66 71.15C163.8 71.15 160.26 69.73 157.55 67.39Z" fill="#FC6736" fill-opacity="1.000000" fill-rule="evenodd"/>
	<path id="Vector" d="M169.13 49.8L169.13 45.51C169.13 44.09 167.14 43.62 166.44 44.87L160.06 56.39C159.66 57.11 160.65 57.81 161.26 57.23L169.13 49.8ZM166.19 61.57L166.19 65.87C166.19 67.29 168.19 67.76 168.88 66.5L175.26 54.99C175.66 54.26 174.68 53.56 174.06 54.14L166.19 61.57Z" fill="#FC6736" fill-opacity="1.000000" fill-rule="evenodd"/>
	<path id="Subtract" d="M109.83 43.27L111.44 44.15L113.05 43.27C122.5 38.13 132.32 49.45 125.89 58.07L125.04 59.22L111.44 72.91L97.84 59.22L97.8 59.16L100.3 59.16C100.63 59.16 100.94 58.98 101.09 58.69C101.88 57.26 103.05 55.12 104.02 53.35C104.23 52.98 104.43 52.62 104.62 52.29C104.81 53.1 105.04 54.07 105.29 55.11C105.94 57.84 106.73 61.07 107.25 63.11C107.35 63.48 107.67 63.75 108.05 63.78C108.44 63.82 108.8 63.6 108.96 63.25L112.44 55.54L114.45 58.74C114.62 59 114.91 59.16 115.22 59.16L118.81 59.16C119.31 59.16 119.72 58.75 119.72 58.25C119.72 57.75 119.31 57.35 118.81 57.35L115.72 57.35L113.07 53.15C112.9 52.86 112.58 52.7 112.25 52.73C111.91 52.75 111.62 52.95 111.48 53.26L108.38 60.14C107.95 58.42 107.47 56.46 107.05 54.69C106.72 53.32 106.43 52.08 106.22 51.17C106.11 50.72 106.03 50.35 105.97 50.08C105.94 49.95 105.92 49.85 105.9 49.79C105.9 49.76 105.89 49.74 105.89 49.73C105.88 49.62 105.84 49.46 105.71 49.3C105.6 49.15 105.43 49.02 105.22 48.97C105.03 48.91 104.86 48.94 104.76 48.97C104.57 49.01 104.45 49.11 104.42 49.13L104.42 49.13C104.38 49.17 104.34 49.21 104.32 49.22C104.27 49.29 104.22 49.35 104.21 49.37L104.21 49.37L104.21 49.37C104.17 49.43 104.12 49.5 104.08 49.58C103.98 49.73 103.85 49.96 103.69 50.24C103.37 50.8 102.93 51.59 102.44 52.48C101.56 54.06 100.53 55.94 99.76 57.35L96.49 57.35C91.1 48.83 100.64 38.27 109.83 43.27ZM105.7 50.39C105.71 50.39 105.71 50.39 105.7 50.4L105.7 50.39ZM104.09 49.85C104.09 49.86 104.09 49.89 104.09 49.94C104.09 49.92 104.09 49.88 104.09 49.84L104.09 49.85L104.09 49.85Z" fill="#FC6736" fill-opacity="1.000000" fill-rule="evenodd"/>
	<ellipse id="Ellipse 16" cx="224.064575" cy="56.545898" rx="6.791652" ry="6.658483" fill="#FC6736" fill-opacity="1.000000"/>
	<path id="Rectangle 25" d="M223.52 62.13L224.34 62.13C229.11 62.13 232.98 66 232.98 70.78C232.98 73.51 230.77 75.72 228.04 75.72L219.81 75.72C217.08 75.72 214.87 73.51 214.87 70.78C214.87 66 218.74 62.13 223.52 62.13Z" fill="#FC6736" fill-opacity="1.000000" fill-rule="nonzero"/>
	<path id="Vector 7 (Stroke)" d="M224.44 35.06C225.16 35.36 225.5 36.19 225.2 36.9L224.38 38.88L225.62 39.48C226.26 39.79 226.57 40.54 226.32 41.22C226.14 41.72 225.87 42.49 225.65 43.15C225.53 43.48 225.44 43.78 225.37 44C225.33 44.11 225.31 44.19 225.3 44.24C225.21 44.93 224.62 45.46 223.9 45.46C223.13 45.46 222.5 44.83 222.5 44.06C222.5 43.83 222.56 43.61 222.57 43.55C222.57 43.55 222.57 43.54 222.57 43.54C222.6 43.43 222.64 43.31 222.68 43.18C222.76 42.92 222.87 42.59 222.98 42.25C223.07 41.99 223.16 41.72 223.26 41.46L221.95 40.82C221.28 40.5 220.99 39.7 221.27 39.02L222.61 35.82C222.9 35.1 223.73 34.77 224.44 35.06ZM225.28 44.29C225.28 44.3 225.29 44.29 225.29 44.27C225.29 44.29 225.29 44.29 225.28 44.29ZM238.23 41.28C238.46 42.02 238.04 42.81 237.3 43.03L235.05 43.72L235.47 45.61C235.62 46.28 235.26 46.97 234.62 47.22L231.91 48.29C231.19 48.57 230.37 48.22 230.09 47.49C229.8 46.77 230.16 45.96 230.88 45.67L232.47 45.05L232.02 43.06C231.86 42.35 232.28 41.63 232.98 41.41L236.48 40.35C237.22 40.12 238 40.54 238.23 41.28ZM210.76 40.6C211.49 40.34 212.3 40.72 212.56 41.46L213.22 43.31L214.79 42.74C215.51 42.47 216.31 42.84 216.59 43.56L217.8 46.76C218.08 47.48 217.72 48.29 216.99 48.57C216.26 48.84 215.45 48.48 215.18 47.75L214.45 45.86L212.86 46.44C212.5 46.57 212.11 46.56 211.78 46.4C211.44 46.24 211.17 45.95 211.05 45.59L209.91 42.4C209.65 41.67 210.03 40.86 210.76 40.6Z" fill="#FC6736" fill-opacity="1.000000" fill-rule="evenodd"/>
	<ellipse id="Ellipse 16" cx="280.163818" cy="56.377930" rx="6.791652" ry="6.658483" fill="#FC6736" fill-opacity="1.000000"/>
	<path id="Rectangle 25" d="M279.61 61.97L280.44 61.97C285.21 61.97 289.08 65.84 289.08 70.61C289.08 73.34 286.87 75.55 284.14 75.55L275.91 75.55C273.18 75.55 270.97 73.34 270.97 70.61C270.97 65.84 274.84 61.97 279.61 61.97Z" fill="#FC6736" fill-opacity="1.000000" fill-rule="nonzero"/>
	<path id="Subtract" d="M267.55 37.42C265.07 37.42 263.05 39.43 263.05 41.92C263.05 44.4 265.07 46.42 267.55 46.42L276.36 46.42C276.9 46.42 277.42 46.62 277.81 46.99L279.45 48.54C279.72 48.79 280.14 48.79 280.41 48.54L282.05 46.99C282.45 46.62 282.96 46.42 283.5 46.42L292.31 46.42C294.79 46.42 296.81 44.4 296.81 41.92C296.81 39.43 294.79 37.42 292.31 37.42L267.55 37.42ZM273.22 39.72C273.25 39.43 273.04 39.17 272.75 39.14C272.46 39.11 272.2 39.32 272.17 39.61L272.12 40.1L269.98 40.1L270.01 39.7C270.03 39.41 269.81 39.16 269.52 39.14C269.23 39.12 268.98 39.34 268.96 39.63L268.92 40.1L268.52 40.1C268.23 40.1 267.99 40.34 267.99 40.63C267.99 40.92 268.23 41.16 268.52 41.16L268.85 41.16L268.72 43L268.2 43C267.91 43 267.67 43.23 267.67 43.52C267.67 43.82 267.91 44.05 268.2 44.05L268.65 44.05L268.64 44.29C268.62 44.58 268.83 44.83 269.12 44.85C269.42 44.87 269.67 44.65 269.69 44.36L269.71 44.05L271.71 44.05L271.69 44.27C271.66 44.56 271.87 44.82 272.16 44.85C272.45 44.88 272.71 44.67 272.74 44.38L272.77 44.05L273.18 44.05C273.47 44.05 273.71 43.82 273.71 43.52C273.71 43.23 273.47 43 273.18 43L272.88 43L273.07 41.16L273.5 41.16C273.79 41.16 274.03 40.92 274.03 40.63C274.03 40.34 273.79 40.1 273.5 40.1L273.18 40.1L273.22 39.72ZM269.91 41.16L272.01 41.16L271.82 43L269.78 43L269.91 41.16ZM285.6 39.65C285.59 39.36 285.35 39.13 285.06 39.14C284.76 39.15 284.54 39.39 284.55 39.68L284.59 40.84L283.64 40.06C283.42 39.88 283.09 39.91 282.9 40.13C282.71 40.36 282.75 40.69 282.97 40.88L284.33 42L282.97 43.12C282.75 43.3 282.71 43.64 282.9 43.86C283.09 44.08 283.42 44.12 283.64 43.93L284.67 43.09L284.71 44.35C284.72 44.64 284.96 44.86 285.25 44.85C285.54 44.84 285.77 44.6 285.76 44.31L285.72 43.15L286.67 43.93C286.89 44.12 287.22 44.08 287.41 43.86C287.6 43.64 287.56 43.3 287.34 43.12L285.98 42L287.34 40.88C287.56 40.69 287.6 40.36 287.41 40.13C287.22 39.91 286.89 39.88 286.67 40.06L285.65 40.91L285.6 39.65ZM279.01 39.67C279.01 39.38 278.78 39.14 278.48 39.14C278.19 39.14 277.96 39.38 277.96 39.67L277.96 40.81L277.05 40.06C276.83 39.88 276.5 39.91 276.31 40.13C276.12 40.36 276.16 40.69 276.38 40.88L277.74 42L276.38 43.12C276.16 43.3 276.12 43.63 276.31 43.86C276.49 44.08 276.82 44.12 277.05 43.93L277.96 43.19L277.96 44.33C277.96 44.62 278.19 44.86 278.48 44.86C278.78 44.86 279.01 44.62 279.01 44.33L279.01 43.05L280.08 43.93C280.3 44.12 280.63 44.08 280.82 43.86C281.01 43.64 280.97 43.3 280.75 43.12L279.4 42.01L280.59 41.04C280.81 40.85 280.84 40.52 280.66 40.3C280.48 40.07 280.14 40.04 279.92 40.22L279.01 40.97L279.01 39.67ZM291.71 39.67C291.71 39.38 291.47 39.14 291.18 39.14C290.89 39.14 290.66 39.38 290.66 39.67L290.66 42.08C290.66 42.37 290.89 42.6 291.18 42.6C291.47 42.6 291.71 42.37 291.71 42.08L291.71 39.67ZM291.71 44.01C291.71 43.72 291.47 43.48 291.18 43.48C290.89 43.48 290.66 43.72 290.66 44.01L290.66 44.33C290.66 44.62 290.89 44.86 291.18 44.86C291.47 44.86 291.71 44.62 291.71 44.33L291.71 44.01Z" fill="#FC6736" fill-opacity="1.000000" fill-rule="evenodd"/>
	<ellipse id="Ellipse 16" cx="332.192932" cy="55.595459" rx="7.068779" ry="6.930175" fill="#FC6736" fill-opacity="1.000000"/>
	<path id="Rectangle 25" d="M331.62 61.41L332.48 61.41C337.45 61.41 341.47 65.44 341.47 70.41C341.47 73.25 339.17 75.55 336.33 75.55L327.77 75.55C324.93 75.55 322.62 73.25 322.62 70.41C322.62 65.44 326.65 61.41 331.62 61.41Z" fill="#FC6736" fill-opacity="1.000000" fill-rule="nonzero"/>
	<path id="Subtract" d="M338.46 38.82C335.93 38.82 333.89 40.87 333.89 43.39L333.89 47.43C337.7 48.23 340.56 51.54 340.56 55.51C340.56 55.57 340.56 55.63 340.56 55.69L341.62 55.69C341.62 53.21 343.45 51.16 345.83 50.82L345.83 46.38L343.73 46.38C343.24 46.38 342.85 45.98 342.85 45.5C342.85 45.01 343.24 44.62 343.73 44.62L345.83 44.62L345.83 43.04C345.83 42.55 346.23 42.16 346.71 42.16C347.2 42.16 347.59 42.55 347.59 43.04L347.59 44.62L349.7 44.62C350.19 44.62 350.58 45.01 350.58 45.5C350.58 45.98 350.19 46.38 349.7 46.38L347.59 46.38L347.59 50.88C349.69 51.34 351.29 53.14 351.44 55.34C353.1 54.66 354.27 53.02 354.27 51.12L354.27 43.39C354.27 40.87 352.22 38.82 349.7 38.82L338.46 38.82ZM346.54 52.53C348.28 52.53 349.7 53.94 349.7 55.69L343.37 55.69C343.37 53.94 344.79 52.53 346.54 52.53Z" fill="#FC6736" fill-opacity="1.000000" fill-rule="evenodd"/>
	<ellipse id="Ellipse 16" cx="392.631653" cy="55.595459" rx="7.068779" ry="6.930175" fill="#FC6736" fill-opacity="1.000000"/>
	<path id="Rectangle 25" d="M392.06 61.41L392.92 61.41C397.89 61.41 401.91 65.44 401.91 70.41C401.91 73.25 399.61 75.55 396.77 75.55L388.2 75.55C385.37 75.55 383.06 73.25 383.06 70.41C383.06 65.44 387.09 61.41 392.06 61.41Z" fill="#FC6736" fill-opacity="1.000000" fill-rule="nonzero"/>
	<ellipse id="Ellipse 16" cx="379.056091" cy="51.324219" rx="3.787391" ry="3.713129" fill="#FC6736" fill-opacity="1.000000"/>
	<path id="Rectangle 25" d="M378.75 54.44L379.21 54.44C381.87 54.44 384.03 56.6 384.03 59.26C384.03 60.78 382.79 62.01 381.27 62.01L376.68 62.01C375.16 62.01 373.93 60.78 373.93 59.26C373.93 56.6 376.09 54.44 378.75 54.44Z" fill="#FC6736" fill-opacity="1.000000" fill-rule="nonzero"/>
	<ellipse id="Ellipse 16" cx="406.112976" cy="51.324219" rx="3.787391" ry="3.713129" fill="#FC6736" fill-opacity="1.000000"/>
	<path id="Rectangle 25" d="M405.8 54.44L406.26 54.44C408.93 54.44 411.08 56.6 411.08 59.26C411.08 60.78 409.85 62.01 408.33 62.01L403.74 62.01C402.22 62.01 400.98 60.78 400.98 59.26C400.98 56.6 403.14 54.44 405.8 54.44Z" fill="#FC6736" fill-opacity="1.000000" fill-rule="nonzero"/>
	<path id="Vector 10" d="M375.68 47.08C375.92 47.96 376.91 49.71 379.02 49.71C381.13 49.71 381.89 47.96 382.01 47.08" stroke="#FC6736" stroke-opacity="1.000000" stroke-width="1.000000" stroke-linecap="round"/>
	<path id="Ellipse 23 (Stroke)" d="M408.73 43.27C408.74 43.27 408.73 43.28 408.73 43.29C408.73 43.28 408.73 43.27 408.73 43.27ZM408.64 43.39C408.59 43.34 408.5 43.27 408.38 43.2C407.94 42.92 407.19 42.69 406.26 42.69C405.32 42.69 404.57 42.92 404.13 43.2C404.01 43.27 403.92 43.34 403.87 43.39C403.92 43.44 404.01 43.51 404.13 43.58C404.57 43.85 405.32 44.09 406.26 44.09C407.19 44.09 407.94 43.85 408.38 43.58C408.5 43.51 408.59 43.44 408.64 43.39ZM403.78 43.27C403.78 43.27 403.78 43.28 403.78 43.29C403.78 43.28 403.77 43.27 403.78 43.27ZM403.78 43.51C403.77 43.51 403.78 43.5 403.78 43.49C403.78 43.5 403.78 43.51 403.78 43.51ZM408.73 43.49C408.73 43.5 408.74 43.51 408.73 43.51C408.73 43.51 408.73 43.5 408.73 43.49ZM406.26 46.2C408.78 46.2 410.82 44.94 410.82 43.39C410.82 41.84 408.78 40.58 406.26 40.58C403.73 40.58 401.69 41.84 401.69 43.39C401.69 44.94 403.73 46.2 406.26 46.2Z" fill="#FC6736" fill-opacity="1.000000" fill-rule="evenodd"/>
</svg>
