<svg width="162.000000" height="191.000000" viewBox="0 0 162 191" fill="none" xmlns="http://www.w3.org/2000/svg" xmlns:xlink="http://www.w3.org/1999/xlink">
	<desc>
			Created with Pixso.
	</desc>
	<defs/>
	<path id="Rectangle 7" d="M0 15.23C0 6.82 6.82 0 15.23 0L111.58 0C119.91 0 126.66 6.89 126.66 15.21C126.66 26.48 135.8 35.8 147.06 35.8C155.26 35.8 161.9 42.45 161.9 50.64L161.9 175.23C161.9 183.65 155.08 190.47 146.66 190.47L15.23 190.47C6.82 190.47 0 183.65 0 175.23L0 15.23ZM146.66 189.71L15.23 189.71Q12.24 189.71 9.68 188.65Q7.12 187.59 5 185.47Q2.88 183.35 1.82 180.79Q0.76 178.23 0.76 175.23L0.76 15.23Q0.76 12.24 1.82 9.68Q2.88 7.12 5 5Q7.12 2.88 9.68 1.82Q12.24 0.76 15.23 0.76L80.95 0.76L111.58 0.76Q114.55 0.76 117.08 1.81Q119.61 2.85 121.71 4.95Q123.8 7.05 124.85 9.58Q125.9 12.11 125.9 15.07L125.9 15.4Q125.9 19.79 127.45 23.53Q129 27.27 132.1 30.37Q135.2 33.47 138.94 35.02Q142.68 36.57 147.06 36.57Q149.98 36.57 152.47 37.6Q154.95 38.63 157.02 40.69Q159.08 42.75 160.11 45.24Q161.14 47.73 161.14 50.64L161.14 175.23Q161.14 178.23 160.08 180.79Q159.02 183.35 156.9 185.47Q154.78 187.59 152.22 188.65Q149.66 189.71 146.66 189.71Z" fill="#FC6736" fill-opacity="1.000000" fill-rule="evenodd"/>
</svg>
