<svg width="469.000000" height="469.000000" viewBox="0 0 469 469" fill="none" xmlns="http://www.w3.org/2000/svg" xmlns:xlink="http://www.w3.org/1999/xlink">
	<desc>
			Created with Pixso.
	</desc>
	<defs>
		<radialGradient id="paint_radial_118_387_0" cx="0.000000" cy="0.000000" r="1.000000" gradientUnits="userSpaceOnUse" gradientTransform="translate(234.433 234.433) rotate(90) scale(348.264 348.264)">
			<stop stop-color="#0C2D57" stop-opacity="0.000000"/>
			<stop offset="0.750000" stop-color="#FC6736"/>
		</radialGradient>
	</defs>
	<mask id="mask118_378" mask-type="alpha" maskUnits="userSpaceOnUse" x="0.000000" y="0.000000" width="469.000000" height="468.999908">
		<path id="Vector" d="M328.29 375.2C276.49 375.2 234.49 417.19 234.49 469C234.49 417.19 192.49 375.2 140.69 375.2C192.49 375.2 234.49 333.2 234.49 281.4C234.49 333.2 276.49 375.2 328.29 375.2Z" stroke="#FFFFFF" stroke-opacity="1.000000" stroke-width="1.000000"/>
		<path id="Vector" d="M201.33 400.31C164.7 363.68 105.31 363.68 68.68 400.31C105.31 363.68 105.31 304.29 68.68 267.66C105.31 304.29 164.7 304.29 201.33 267.66C164.7 304.29 164.7 363.68 201.33 400.31Z" stroke="#FFFFFF" stroke-opacity="1.000000" stroke-width="1.000000"/>
		<path id="Vector" d="M93.79 328.29C93.79 276.49 51.8 234.49 0 234.49C51.8 234.49 93.79 192.49 93.79 140.69C93.79 192.49 135.79 234.49 187.6 234.49C135.79 234.49 93.79 276.49 93.79 328.29Z" stroke="#FFFFFF" stroke-opacity="1.000000" stroke-width="1.000000"/>
		<path id="Vector" d="M68.68 201.33C105.31 164.7 105.31 105.31 68.68 68.68C105.31 105.31 164.7 105.31 201.33 68.68C164.7 105.31 164.7 164.7 201.33 201.33C164.7 164.7 105.31 164.7 68.68 201.33Z" stroke="#FFFFFF" stroke-opacity="1.000000" stroke-width="1.000000"/>
		<path id="Vector" d="M140.7 93.8C192.5 93.8 234.5 51.8 234.5 6.1e-5C234.5 51.8 276.5 93.8 328.3 93.8C276.5 93.8 234.5 135.79 234.5 187.6C234.5 135.79 192.5 93.8 140.7 93.8Z" stroke="#FFFFFF" stroke-opacity="1.000000" stroke-width="1.000000"/>
		<path id="Vector" d="M267.66 68.68C304.29 105.31 363.68 105.31 400.31 68.68C363.68 105.31 363.68 164.7 400.31 201.33C363.68 164.7 304.29 164.7 267.66 201.33C304.29 164.7 304.29 105.31 267.66 68.68Z" stroke="#FFFFFF" stroke-opacity="1.000000" stroke-width="1.000000"/>
		<path id="Vector" d="M375.2 140.7C375.2 192.5 417.19 234.5 469 234.5C417.19 234.5 375.2 276.5 375.2 328.3C375.2 276.5 333.2 234.5 281.4 234.5C333.2 234.5 375.2 192.5 375.2 140.7Z" stroke="#FFFFFF" stroke-opacity="1.000000" stroke-width="1.000000"/>
		<path id="Vector" d="M400.31 267.66C363.68 304.29 363.68 363.68 400.31 400.31C363.68 363.68 304.29 363.68 267.66 400.31C304.29 363.68 304.29 304.29 267.66 267.66C304.29 304.29 363.68 304.29 400.31 267.66Z" stroke="#FFFFFF" stroke-opacity="1.000000" stroke-width="1.000000"/>
	</mask>
	<g mask="url(#mask118_378)">
		<rect id="Rectangle 13" width="468.866425" height="468.866425" fill="url(#paint_radial_118_387_0)" fill-opacity="1.000000"/>
	</g>
</svg>
