<svg width="63.000000" height="28.000000" viewBox="0 0 63 28" fill="none" xmlns="http://www.w3.org/2000/svg" xmlns:xlink="http://www.w3.org/1999/xlink">
	<desc>
			Created with Pixso.
	</desc>
	<defs>
		<filter id="filter_118_375_dd" x="38.599976" y="-0.399994" width="12.800049" height="12.799988" filterUnits="userSpaceOnUse" color-interpolation-filters="sRGB">
			<feFlood flood-opacity="0" result="BackgroundImageFix"/>
			<feBlend mode="normal" in="SourceGraphic" in2="BackgroundImageFix" result="shape"/>
			<feGaussianBlur stdDeviation="0.466667" result="effect_layerBlur_1"/>
		</filter>
		<linearGradient id="paint_linear_118_374_0" x1="30.999998" y1="16.000004" x2="24.685179" y2="6.000006" gradientUnits="userSpaceOnUse">
			<stop stop-color="#FFB0B0"/>
			<stop offset="1.000000" stop-color="#0C2D57" stop-opacity="0.000000"/>
		</linearGradient>
	</defs>
	<path id="Rectangle 5" d="M45.35 5.5L52 5.5Q56.34 5.5 59.42 8.57Q62.5 11.65 62.5 16L62.5 17Q62.5 21.34 59.42 24.42Q56.34 27.5 52 27.5L10 27.5Q5.65 27.5 2.57 24.42Q-0.5 21.34 -0.5 17L-0.5 16Q-0.5 11.65 2.57 8.57Q5.65 5.5 10 5.5L26.4 5.5L26.4 6.5L10 6.5Q6.06 6.5 3.28 9.28Q0.5 12.06 0.5 16L0.5 17Q0.5 20.93 3.28 23.71Q6.06 26.5 10 26.5L52 26.5Q55.93 26.5 58.71 23.71Q61.5 20.93 61.5 17L61.5 16Q61.5 12.06 58.71 9.28Q55.93 6.5 52 6.5L45.35 6.5L45.35 5.5Z" fill="url(#paint_linear_118_374_0)" fill-opacity="1.000000" fill-rule="evenodd"/>
	<g filter="url(#filter_118_375_dd)">
		<path id="Vector" d="M45 11C45 8.23 42.76 6 40 6C42.76 6 45 3.76 45 1C45 3.76 47.23 6 50 6C47.23 6 45 8.23 45 11Z" fill="#FFB0B0" fill-opacity="1.000000" fill-rule="nonzero"/>
	</g>
</svg>
