<svg width="60.000000" height="60.000000" viewBox="0 0 60 60" fill="none" xmlns="http://www.w3.org/2000/svg" xmlns:xlink="http://www.w3.org/1999/xlink">
	<desc>
			Created with Pixso.
	</desc>
	<defs/>
	<circle id="Ellipse 13" cx="30.000000" cy="29.665527" r="29.500000" stroke="#FFFFFF" stroke-opacity="1.000000" stroke-width="1.000000"/>
	<path id="Vector" d="M40.77 16.33C40.77 16.33 43.8 15.15 43.55 18.01C43.47 19.18 42.71 23.29 42.12 27.74L40.09 40.92C40.09 40.92 39.92 42.85 38.4 43.18C36.88 43.52 34.6 42.01 34.18 41.67C33.84 41.42 27.85 37.64 25.74 35.8C25.15 35.3 24.47 34.29 25.82 33.11L34.69 24.72C35.7 23.71 36.71 21.36 32.49 24.22L20.67 32.19C20.67 32.19 19.32 33.03 16.79 32.27L11.3 30.6C11.3 30.6 9.27 29.34 12.73 28.08C21.18 24.13 31.56 20.11 40.77 16.33Z" fill="#EFECEC" fill-opacity="1.000000" fill-rule="nonzero"/>
</svg>
