<svg width="60.000000" height="59.000000" viewBox="0 0 60 59" fill="none" xmlns="http://www.w3.org/2000/svg" xmlns:xlink="http://www.w3.org/1999/xlink">
	<desc>
			Created with Pixso.
	</desc>
	<defs/>
	<ellipse id="Ellipse 12" cx="30.000000" cy="29.312500" rx="29.500000" ry="29.147058" stroke="#FFFFFF" stroke-opacity="1.000000" stroke-width="1.000000"/>
	<path id="Vector" d="M30.35 13.78C22.16 13.78 15.52 20.41 15.52 28.6C15.52 31.4 16.3 34.03 17.66 36.26L16.33 40.76C16.26 41.02 16.25 41.29 16.32 41.55C16.39 41.81 16.52 42.05 16.71 42.24C16.9 42.43 17.14 42.56 17.4 42.63C17.66 42.7 17.93 42.69 18.19 42.62L22.69 41.29C25 42.69 27.65 43.43 30.35 43.43C38.54 43.43 45.17 36.79 45.17 28.6C45.17 20.41 38.54 13.78 30.35 13.78ZM26.99 31.96C29.99 34.95 32.86 35.35 33.87 35.39C35.4 35.44 36.9 34.27 37.48 32.91C37.56 32.74 37.58 32.55 37.56 32.37C37.54 32.18 37.47 32.01 37.35 31.86C36.54 30.83 35.44 30.08 34.37 29.34C34.15 29.18 33.87 29.12 33.6 29.17C33.33 29.21 33.09 29.36 32.93 29.57L32.04 30.93C31.99 31 31.92 31.06 31.83 31.08C31.75 31.1 31.66 31.09 31.59 31.04C30.98 30.7 30.1 30.11 29.47 29.48C28.84 28.85 28.29 28.01 27.98 27.44C27.94 27.37 27.93 27.29 27.95 27.21C27.97 27.13 28.01 27.06 28.08 27.01L29.45 26C29.64 25.83 29.77 25.59 29.8 25.33C29.84 25.08 29.77 24.82 29.63 24.6C28.96 23.63 28.19 22.39 27.07 21.57C26.92 21.47 26.75 21.4 26.57 21.38C26.4 21.36 26.22 21.39 26.05 21.46C24.69 22.05 23.51 23.54 23.56 25.08C23.6 26.1 24 28.96 26.99 31.96Z" fill="#EFECEC" fill-opacity="1.000000" fill-rule="evenodd"/>
</svg>
