<svg width="60.000000" height="60.000000" viewBox="0 0 60 60" fill="none" xmlns="http://www.w3.org/2000/svg" xmlns:xlink="http://www.w3.org/1999/xlink">
	<desc>
			Created with Pixso.
	</desc>
	<defs>
		<clipPath id="clip148_124">
			<rect id="youtube_fill" width="41.927711" height="41.204823" transform="translate(8.873291 9.342773)" fill="white" fill-opacity="0"/>
		</clipPath>
	</defs>
	<rect id="Rectangle 4" x="0.500000" y="0.445312" rx="29.500000" width="59.000000" height="59.000000" stroke="#FFFFFF" stroke-opacity="1.000000" stroke-width="1.000000"/>
	<rect id="youtube_fill" width="41.927711" height="41.204823" transform="translate(8.873291 9.342773)" fill="#FFFFFF" fill-opacity="0"/>
	<g clip-path="url(#clip148_124)">
		<path id="Vector" d="M29.83 16.21C31.33 16.21 32.86 16.24 34.34 16.31L36.1 16.39L37.78 16.49L39.35 16.59L40.78 16.7C42.34 16.82 43.81 17.47 44.93 18.55C46.04 19.62 46.74 21.05 46.89 22.58L46.96 23.31L47.09 24.87C47.21 26.49 47.3 28.25 47.3 29.94C47.3 31.63 47.21 33.39 47.09 35.01L46.96 36.57C46.94 36.83 46.91 37.07 46.89 37.3C46.74 38.83 46.04 40.26 44.92 41.34C43.81 42.41 42.34 43.06 40.78 43.18L39.35 43.29L37.78 43.4L36.1 43.49L34.34 43.58C32.86 43.64 31.33 43.68 29.83 43.68C28.34 43.68 26.81 43.64 25.32 43.58L23.57 43.49L21.89 43.4L20.32 43.29L18.88 43.18C17.32 43.06 15.86 42.41 14.74 41.34C13.62 40.26 12.93 38.83 12.78 37.3L12.71 36.57L12.58 35.01C12.44 33.32 12.37 31.63 12.36 29.94C12.36 28.25 12.45 26.49 12.58 24.87L12.71 23.31C12.73 23.06 12.75 22.81 12.78 22.58C12.93 21.05 13.62 19.62 14.74 18.55C15.85 17.47 17.32 16.82 18.88 16.7L20.31 16.59L21.89 16.49L23.57 16.39L25.32 16.31C26.81 16.24 28.34 16.21 29.83 16.21ZM26.34 25.78L26.34 34.1C26.34 34.9 27.21 35.39 27.91 35L35.25 30.83C35.41 30.74 35.54 30.61 35.63 30.46C35.72 30.3 35.77 30.12 35.77 29.94C35.77 29.76 35.72 29.58 35.63 29.42C35.54 29.27 35.41 29.14 35.25 29.05L27.91 24.89C27.75 24.8 27.57 24.75 27.39 24.75C27.2 24.75 27.02 24.8 26.86 24.89C26.7 24.98 26.57 25.11 26.48 25.26C26.39 25.42 26.34 25.6 26.34 25.78L26.34 25.78Z" fill="#EFECEC" fill-opacity="1.000000" fill-rule="evenodd"/>
	</g>
</svg>
